<svg width="20" height="20" viewBox="0 0 20 20" fill="none" xmlns="http://www.w3.org/2000/svg">
<path d="M1.6 0.400024C1.3788 0.400024 1.2 0.579224 1.2 0.800024V4.00002C1.2 4.22122 1.3788 4.40002 1.6 4.40002H6C6.2212 4.40002 6.4 4.22122 6.4 4.00002V0.800024C6.4 0.579224 6.2212 0.400024 6 0.400024H1.6ZM14.8656 3.80002C14.1159 3.80002 13.4829 4.0402 13.143 4.40002H10.8C10.747 4.39927 10.6944 4.40907 10.6452 4.42883C10.596 4.4486 10.5512 4.47794 10.5135 4.51516C10.4757 4.55238 10.4458 4.59673 10.4253 4.64563C10.4048 4.69453 10.3943 4.74701 10.3943 4.80002C10.3943 4.85303 10.4048 4.90552 10.4253 4.95442C10.4458 5.00332 10.4757 5.04767 10.5135 5.08489C10.5512 5.12211 10.596 5.15145 10.6452 5.17122C10.6944 5.19098 10.747 5.20077 10.8 5.20002H12.9039C13.058 5.77437 13.863 6.20002 14.8656 6.20002C15.308 6.20002 15.5989 6.11484 15.7805 5.93284C16.0065 5.70564 16.0059 5.38541 16.0047 5.07581L16.0039 4.99924L16.0047 4.92346C16.0059 4.61426 16.0069 4.29441 15.7805 4.06721C15.5989 3.88481 15.3092 3.80002 14.868 3.80002H14.8656ZM0.8 5.20002C0.5788 5.20002 0.4 5.37922 0.4 5.60002V8.80002C0.4 9.02082 0.5788 9.20002 0.8 9.20002H4.40625C4.45665 8.53882 4.8408 7.68702 5.6 7.60862V5.60002C5.6 5.37922 5.4212 5.20002 5.2 5.20002H0.8ZM13.2992 6.67424C13.6444 9.29864 13.1292 11.8418 11.9312 13.2774C11.3088 14.0226 10.5606 14.4 9.70703 14.4C9.31223 14.4 9.07836 14.1403 8.95156 13.9219C8.60916 13.3319 8.55029 12.1746 9.32109 10.625C8.80509 10.7406 8.15782 10.8 7.37422 10.8C6.90285 10.8 5.81931 10.7967 5.09922 10.4141C5.02577 10.3751 4.95699 10.3317 4.89219 10.2844C4.76617 10.1924 4.65603 10.0858 4.57422 9.95784C4.54539 9.97119 4.51972 9.98636 4.49141 10H0.4C0.1788 10 0 10.1792 0 10.4C0 10.6212 0.1788 10.8 0.4 10.8H3.25625C2.05216 11.818 1.6388 13.0068 1.61484 13.0906C1.58484 13.197 1.59983 13.3115 1.65703 13.4063C1.71423 13.5011 1.80762 13.5682 1.91562 13.5914L7.94766 15.2H12.4234C12.4094 15.076 12.4 14.9448 12.4 14.8C12.4 12.6692 14.456 10.8 16.8 10.8C16.8724 10.8 16.941 10.8039 17.0102 10.8071C16.867 9.20426 16.0939 7.86039 15.4031 6.95159C15.2375 6.98079 15.0612 7.00002 14.8656 7.00002C14.276 7.00002 13.7404 6.88104 13.2992 6.67424ZM5.7125 8.40002C5.67363 8.40002 5.63637 8.41193 5.6 8.43049L5.59844 8.43206C5.55283 8.45573 5.51037 8.49397 5.47031 8.54065C5.46482 8.54701 5.45927 8.55268 5.45391 8.5594C5.41438 8.60911 5.37789 8.66611 5.34609 8.73127C5.30607 8.81292 5.27528 8.90407 5.25078 8.99768C5.24305 9.02719 5.23956 9.05463 5.23359 9.0844C5.22595 9.12242 5.21469 9.15998 5.21016 9.19768C5.21352 9.19759 5.21619 9.19551 5.21953 9.19534C5.21337 9.24622 5.2 9.29865 5.2 9.3469C5.2 9.7541 5.94342 10 7.37422 10C8.80582 10 10 9.7545 10 9.3469C10 8.9401 9.77072 8.40002 9.48672 8.40002H5.7125ZM16.8 11.6C14.99 11.6 13.2 13.0296 13.2 14.8C13.2 15.896 13.676 16 14 16C14.6636 16 14.4 14.6392 16 14C16.47 13.8124 16.9322 13.7539 17.3602 13.7539C18.0838 13.7539 18.7096 13.9219 19.1148 13.9219C19.4208 13.9219 19.6008 13.8259 19.6008 13.4883C19.6004 13.1999 19.0816 11.6 16.8 11.6ZM17.2719 14.5571C16.9131 14.5659 16.5917 14.6254 16.2969 14.743C16.2217 14.773 16.1542 14.8051 16.0906 14.8383C16.035 14.9479 16 15.0692 16 15.2C16 15.6412 16.3588 16 16.8 16C17.2412 16 17.6 15.6412 17.6 15.2C17.6 14.9356 17.4699 14.7027 17.2719 14.5571ZM2.47734 14.5688C2.42974 14.7752 2.4 14.986 2.4 15.2C2.4 16.7436 3.6564 18 5.2 18C6.4688 18 7.54157 17.1506 7.88437 15.9914C7.83637 15.9878 7.78821 15.9859 7.74141 15.9735L6.7125 15.6985C6.5017 16.3357 5.9072 16.8 5.2 16.8C4.3176 16.8 3.6 16.0824 3.6 15.2C3.6 15.0892 3.61394 14.9818 3.63594 14.8774L2.47734 14.5688ZM18.293 14.6375C18.3594 14.8135 18.4 15.0016 18.4 15.2C18.4 16.0824 17.6824 16.8 16.8 16.8C16.1048 16.8 15.5181 16.3521 15.2977 15.7313C15.2881 15.7505 15.2787 15.7699 15.2695 15.7891C15.1267 16.0831 14.9056 16.5269 14.45 16.7117C14.9536 17.4925 15.826 18 16.8 18C18.3436 18 19.6 16.7436 19.6 15.2C19.6 15.018 19.5762 14.8385 19.5414 14.6617C19.4138 14.6969 19.2761 14.7219 19.1141 14.7219C18.8833 14.7219 18.6335 14.6861 18.3687 14.6477C18.3447 14.6441 18.3174 14.6411 18.293 14.6375ZM4.41172 15.0852C4.40612 15.1232 4.4 15.1608 4.4 15.2C4.4 15.6412 4.7588 16 5.2 16C5.5372 16 5.82499 15.789 5.94219 15.493L4.41172 15.0852Z" fill="white"/>
</svg>
