<svg width="62" height="85" viewBox="0 0 62 85" fill="none" xmlns="http://www.w3.org/2000/svg">
<rect y="28" width="62" height="29" fill="black"/>
<path d="M62 28.5C62 24.7573 61.1982 21.0513 59.6403 17.5935C58.0824 14.1357 55.7989 10.9939 52.9203 8.34746C50.0417 5.70099 46.6243 3.60169 42.8632 2.16943C39.1021 0.737174 35.071 -1.63597e-07 31 0C26.929 1.63597e-07 22.8979 0.737175 19.1368 2.16943C15.3757 3.60169 11.9583 5.70099 9.07969 8.34746C6.20107 10.9939 3.91763 14.1357 2.35973 17.5935C0.801838 21.0513 -3.55896e-07 24.7573 0 28.5L31 28.5H62Z" fill="black"/>
<path d="M62 56.5C62 60.2427 61.1982 63.9487 59.6403 67.4065C58.0824 70.8643 55.7989 74.0061 52.9203 76.6525C50.0417 79.299 46.6243 81.3983 42.8632 82.8306C39.1021 84.2628 35.071 85 31 85C26.929 85 22.8979 84.2628 19.1368 82.8306C15.3757 81.3983 11.9583 79.299 9.07969 76.6525C6.20107 74.0061 3.91763 70.8643 2.35973 67.4065C0.801838 63.9487 -3.55896e-07 60.2427 0 56.5L31 56.5H62Z" fill="black"/>
<path d="M12.0527 71.8195L15.2564 67.7937L15.848 68.2644C16.0725 68.4431 16.2204 68.6414 16.2917 68.8591C16.3648 69.0783 16.3668 69.308 16.2978 69.5483C16.2288 69.7887 16.097 70.0312 15.9023 70.2758C15.7076 70.5205 15.5005 70.7001 15.2811 70.8147C15.0617 70.9293 14.8362 70.9766 14.6048 70.9564C14.3766 70.9358 14.1502 70.8437 13.9257 70.6799L12.6442 72.2902L12.0527 71.8195ZM14.4052 70.0774C14.5092 70.1602 14.6074 70.2055 14.6996 70.2133C14.7933 70.2193 14.8885 70.1877 14.9852 70.1185C15.0838 70.0509 15.189 69.9468 15.3009 69.8062C15.4143 69.6638 15.4928 69.5369 15.5366 69.4257C15.5823 69.3159 15.5908 69.2153 15.5621 69.1239C15.5353 69.0339 15.4707 68.9483 15.3685 68.8669L14.4052 70.0774Z" fill="white"/>
<path d="M15.0487 73.9335L18.2163 69.8792L18.812 70.3446L15.6444 74.399L15.0487 73.9335Z" fill="white"/>
<path d="M16.8751 75.3465L17.2811 74.6433L20.0976 72.1309L19.2186 71.6234L19.5931 70.9748L21.1814 71.8918L20.8069 72.5404L17.9407 75.0968L18.9834 75.6988L18.6089 76.3475L16.8751 75.3465Z" fill="white"/>
<path d="M20.7538 77.7836L21.0315 77.0205L23.369 74.0573L22.4152 73.7101L22.6714 73.0063L24.3947 73.6336L24.1386 74.3374L21.7598 77.3527L22.8912 77.7644L22.6351 78.4683L20.7538 77.7836Z" fill="white"/>
<path d="M24.2925 79.0317L25.515 73.974L26.4355 74.0546L26.7611 79.2477L26.0289 79.1836L25.981 78.1254L25.2557 78.062L25.0247 79.0958L24.2925 79.0317ZM25.4299 77.2762L25.9459 77.3213L25.8804 75.58L25.8833 75.3062L25.8415 75.3025L25.7967 75.5727L25.4299 77.2762Z" fill="white"/>
<path d="M31.1752 80.0915C30.8742 80.0915 30.6257 79.9947 30.4297 79.801C30.2361 79.605 30.1392 79.3239 30.1392 78.9575C30.1392 78.7289 30.1696 78.5247 30.2302 78.345C30.2932 78.163 30.3691 77.9997 30.4577 77.855C30.5487 77.7104 30.6362 77.5809 30.7202 77.4665C30.5989 77.2145 30.5079 76.9672 30.4472 76.7245C30.3866 76.4795 30.3562 76.2229 30.3562 75.9545C30.3562 75.6349 30.4344 75.3689 30.5907 75.1565C30.7471 74.9419 30.9769 74.8345 31.2802 74.8345C31.5766 74.8345 31.8006 74.9395 31.9522 75.1495C32.1039 75.3595 32.1797 75.6174 32.1797 75.923C32.1797 76.1774 32.1121 76.4305 31.9767 76.6825C31.8414 76.9322 31.6769 77.1842 31.4832 77.4385C31.5952 77.6929 31.6909 77.8947 31.7702 78.044C31.8496 78.191 31.9219 78.3135 31.9872 78.4115C32.0339 78.2809 32.0701 78.1432 32.0957 77.9985C32.1237 77.8515 32.1412 77.7489 32.1482 77.6905L32.7502 77.8025C32.7339 78.0009 32.6931 78.212 32.6277 78.436C32.5624 78.66 32.4866 78.8572 32.4002 79.0275C32.4469 79.0789 32.5041 79.1302 32.5717 79.1815C32.6394 79.2305 32.6989 79.2655 32.7502 79.2865V80.0915C32.6849 80.0915 32.6044 80.0635 32.5087 80.0075C32.4131 79.9515 32.3209 79.8862 32.2322 79.8115C32.1459 79.7369 32.0806 79.6715 32.0362 79.6155C31.9289 79.7579 31.8111 79.8734 31.6827 79.962C31.5544 80.0484 31.3852 80.0915 31.1752 80.0915ZM31.2102 79.4335C31.3059 79.4335 31.3864 79.4055 31.4517 79.3495C31.5171 79.2935 31.5789 79.2235 31.6372 79.1395C31.5439 78.9879 31.4482 78.8315 31.3502 78.6705C31.2546 78.5095 31.1519 78.3299 31.0422 78.1315C30.9909 78.2179 30.9489 78.331 30.9162 78.471C30.8836 78.6087 30.8672 78.7324 30.8672 78.842C30.8672 78.9914 30.8952 79.1279 30.9512 79.2515C31.0072 79.3729 31.0936 79.4335 31.2102 79.4335ZM31.2032 76.7945C31.2872 76.6639 31.3654 76.5215 31.4377 76.3675C31.5101 76.2135 31.5462 76.0689 31.5462 75.9335C31.5462 75.7959 31.5276 75.6792 31.4902 75.5835C31.4529 75.4855 31.3829 75.4365 31.2802 75.4365C31.1799 75.4365 31.1099 75.4867 31.0702 75.587C31.0306 75.6874 31.0107 75.8064 31.0107 75.944C31.0107 76.0887 31.0282 76.2322 31.0632 76.3745C31.1006 76.5169 31.1472 76.6569 31.2032 76.7945Z" fill="white"/>
<path d="M36.4496 79.7017L34.9236 74.7882L35.8394 74.5037L37.0249 76.9282L37.1393 77.1786L37.1526 77.1744L37.1051 76.9033L36.7085 74.2338L37.6243 73.9494L39.1503 78.8629L38.4818 79.0705L37.4583 75.7748L37.4181 75.7872L37.4558 76.0028L37.9871 79.2241L37.6128 79.3404L36.2257 76.3848L36.1346 76.1859L36.0945 76.1983L37.1181 79.494L36.4496 79.7017Z" fill="white"/>
<path d="M42.55 77.2101C42.3502 77.275 42.1631 77.2843 41.9886 77.238C41.8163 77.1909 41.6653 77.1001 41.5357 76.9656C41.4084 76.8303 41.3122 76.6628 41.2474 76.4631L40.3107 73.5805C40.2451 73.3785 40.2244 73.1865 40.2487 73.0044C40.2744 72.8194 40.3432 72.6572 40.4549 72.5179C40.5689 72.3778 40.7257 72.2753 40.9255 72.2104C41.1252 72.1455 41.3112 72.1366 41.4835 72.1837C41.658 72.23 41.809 72.3208 41.9363 72.4561C42.0659 72.5906 42.1632 72.7578 42.2281 72.9575L43.1647 75.8401C43.2296 76.0399 43.2491 76.2322 43.2234 76.4172C43.1999 76.6015 43.1311 76.7637 43.0172 76.9038C42.9054 77.0431 42.7497 77.1453 42.55 77.2101ZM42.3228 76.5111C42.4116 76.4823 42.4618 76.4255 42.4735 76.3407C42.4845 76.2537 42.4752 76.1647 42.4457 76.0737L41.5091 73.1911C41.4795 73.1001 41.434 73.0241 41.3724 72.9632C41.3102 72.9 41.2369 72.8821 41.1526 72.9095C41.0705 72.9361 41.0217 72.9937 41.0063 73.0821C40.9923 73.1676 41.0002 73.2559 41.0297 73.3468L41.9664 76.2295C41.9959 76.3205 42.0418 76.3976 42.1041 76.4608C42.1656 76.5217 42.2385 76.5385 42.3228 76.5111Z" fill="white"/>
<path d="M45.7836 75.2764L42.6436 71.2007L43.2425 70.7393C43.6011 70.463 43.9423 70.3592 44.2662 70.4278C44.5886 70.4946 44.8986 70.7212 45.1963 71.1075C45.3728 71.3367 45.4853 71.5667 45.5335 71.7976C45.5822 72.0252 45.5791 72.2219 45.5243 72.3878L47.425 74.0119L46.8261 74.4733L45.1635 73.0149L45.0582 73.096L46.3825 74.815L45.7836 75.2764ZM44.631 72.5415C44.7419 72.4561 44.8111 72.3644 44.8388 72.2665C44.8651 72.1667 44.8572 72.0609 44.8151 71.949C44.7731 71.837 44.7043 71.7191 44.6089 71.5953C44.4594 71.4012 44.3124 71.2773 44.168 71.2237C44.024 71.1667 43.8678 71.2031 43.6996 71.3326L44.631 72.5415Z" fill="white"/>
<path d="M49.3464 72.6552L45.7056 69.0198L46.9273 67.7963L47.4772 68.3453L46.7896 69.0339L47.7704 70.0132L48.265 69.5179L48.8 70.052L48.3054 70.5474L49.3307 71.5712L50.0182 70.8827L50.5681 71.4317L49.3464 72.6552Z" fill="white"/>
<line x1="47" y1="61.25" x2="38" y2="61.25" stroke="#EF662F" stroke-width="0.5"/>
<path d="M30.999 63.04C30.8457 63.04 30.7148 63.0058 30.6065 62.9375C30.4998 62.8675 30.4182 62.7725 30.3615 62.6525C30.3065 62.5325 30.279 62.3967 30.279 62.245V60.08C30.279 59.93 30.3073 59.795 30.364 59.675C30.4223 59.555 30.5057 59.46 30.614 59.39C30.7223 59.32 30.8507 59.285 30.999 59.285C31.1107 59.285 31.2107 59.3058 31.299 59.3475C31.3873 59.3892 31.4623 59.4467 31.524 59.52C31.5873 59.5917 31.6357 59.6758 31.669 59.7725C31.7023 59.8675 31.719 59.97 31.719 60.08V60.585H31.214V60.08C31.214 60.0033 31.1982 59.9392 31.1665 59.8875C31.1348 59.8358 31.0823 59.81 31.009 59.81C30.9423 59.81 30.894 59.8367 30.864 59.89C30.834 59.9433 30.819 60.0067 30.819 60.08V62.245C30.819 62.3183 30.8348 62.3817 30.8665 62.435C30.8998 62.4883 30.9473 62.515 31.009 62.515C31.084 62.515 31.1365 62.4892 31.1665 62.4375C31.1982 62.3858 31.214 62.3217 31.214 62.245V61.74H31.719V62.245C31.719 62.395 31.6898 62.53 31.6315 62.65C31.5732 62.77 31.4898 62.865 31.3815 62.935C31.2748 63.005 31.1473 63.04 30.999 63.04Z" fill="white"/>
<circle cx="31" cy="61" r="2.75" stroke="#EF662F" stroke-width="0.5"/>
<line x1="24" y1="61.25" x2="15" y2="61.25" stroke="#EF662F" stroke-width="0.5"/>
<path d="M17.0979 17.3846C16.9436 17.5684 16.7678 17.6907 16.5706 17.7515C16.3751 17.8103 16.1738 17.8137 15.9668 17.7618C15.7614 17.7078 15.5668 17.6037 15.383 17.4494L12.7294 15.2228C12.5435 15.0668 12.4072 14.8932 12.3204 14.7021C12.2333 14.5072 12.2017 14.3084 12.2256 14.1056C12.2512 13.9009 12.3412 13.7065 12.4955 13.5227C12.6497 13.3388 12.8246 13.2175 13.0201 13.1588C13.2173 13.098 13.4186 13.0946 13.624 13.1486C13.831 13.2005 14.0265 13.3036 14.2104 13.4578L16.8639 15.6844C17.0478 15.8387 17.1833 16.0133 17.2703 16.2082C17.3591 16.4011 17.3907 16.5999 17.3651 16.8047C17.3412 17.0074 17.2521 17.2007 17.0979 17.3846ZM16.4544 16.8446C16.5229 16.7629 16.5372 16.6774 16.4972 16.5882C16.4552 16.4972 16.3923 16.4166 16.3086 16.3463L13.655 14.1197C13.5712 14.0494 13.4811 14.0034 13.3845 13.9815C13.2859 13.958 13.2041 13.985 13.1389 14.0626C13.0755 14.1382 13.0631 14.2235 13.1017 14.3186C13.14 14.4099 13.201 14.4907 13.2847 14.5609L15.9383 16.7876C16.0221 16.8578 16.1133 16.9047 16.2118 16.9283C16.3084 16.9501 16.3892 16.9222 16.4544 16.8446Z" fill="white"/>
<path d="M19.8507 15.0904L16.4781 10.2738L17.1859 9.77819C17.6096 9.48146 18.0046 9.38069 18.3708 9.47589C18.7354 9.56891 19.0775 9.84368 19.3972 10.3002C19.5869 10.5711 19.7032 10.8396 19.7463 11.1056C19.79 11.368 19.7763 11.5925 19.7051 11.7791L21.7905 13.7321L21.0827 14.2277L19.2605 12.4761L19.136 12.5633L20.5585 14.5948L19.8507 15.0904ZM18.6772 11.908C18.8082 11.8162 18.8921 11.7152 18.9288 11.6048C18.9639 11.4923 18.9604 11.3711 18.9182 11.2411C18.8761 11.1111 18.8037 10.973 18.7013 10.8266C18.5407 10.5972 18.3793 10.4482 18.2172 10.3794C18.0557 10.3069 17.8756 10.3402 17.6768 10.4794L18.6772 11.908Z" fill="white"/>
<path d="M24.2681 13.008L22.257 7.48261L23.0689 7.18711L25.08 12.7125L24.2681 13.008Z" fill="white"/>
<path d="M28.5629 11.2448C28.3274 11.2737 28.1287 11.2417 27.9668 11.1487C27.8049 11.0557 27.6765 10.9184 27.5817 10.7366C27.4895 10.5545 27.4287 10.3443 27.3995 10.1061L26.9773 6.6679C26.9484 6.43233 26.9686 6.21358 27.0378 6.01164C27.107 5.80969 27.2209 5.64258 27.3793 5.51029C27.5373 5.37535 27.7328 5.29358 27.9657 5.26499C28.1431 5.24321 28.3059 5.2568 28.4543 5.30574C28.6051 5.35172 28.7365 5.42692 28.8488 5.53136C28.9637 5.63546 29.0557 5.76119 29.1248 5.90853C29.1963 6.0529 29.2427 6.21242 29.2642 6.38711L29.3743 7.28437L28.5168 7.38967L28.4066 6.49241C28.3923 6.37595 28.3588 6.27797 28.306 6.19847C28.2533 6.11897 28.174 6.08573 28.0681 6.09873C27.9649 6.1114 27.8963 6.16549 27.8623 6.26101C27.8307 6.35355 27.8216 6.45408 27.8349 6.5626L28.2658 10.0722C28.2798 10.1861 28.3146 10.2839 28.3704 10.3657C28.4258 10.4449 28.5037 10.4783 28.6043 10.4659C28.7102 10.4529 28.7791 10.4015 28.8111 10.3116C28.8427 10.219 28.8515 10.1159 28.8375 10.002L28.7176 9.02538L28.3762 9.06731L28.2777 8.26533L29.4767 8.11811L29.8335 11.0243L29.3254 11.0867L29.1831 10.7817C29.1236 10.9099 29.0399 11.0156 28.9319 11.0987C28.8262 11.1789 28.7032 11.2276 28.5629 11.2448Z" fill="white"/>
<path d="M31.7721 11.0153L32.3867 5.16756L33.2459 5.25787L32.6313 11.1057L31.7721 11.0153Z" fill="white"/>
<path d="M35.3526 11.8057L37.2669 6.24603L38.0309 6.50909L37.7898 9.66661L37.7693 9.94723L37.8147 9.96286L38.9008 6.80861L39.6496 7.06646L37.7353 12.6261L37.047 12.3891L37.2124 9.20553L37.2329 8.92491L37.1875 8.90928L36.1014 12.0635L35.3526 11.8057Z" fill="white"/>
<path d="M40.6266 13.8889L44.7267 9.58166L45.5917 10.1874L42.9465 15.5133L42.2584 15.0315L42.8156 13.9567L42.1341 13.4795L41.3147 14.3707L40.6266 13.8889ZM42.7555 12.8013L43.2404 13.1409L44.1706 11.38L44.3299 11.1106L44.2906 11.0831L44.092 11.3249L42.7555 12.8013Z" fill="white"/>
<path d="M43.9437 16.6328L48.448 12.8532L49.0034 13.5151L45.1119 16.7804L45.8472 17.6568L45.2344 18.171L43.9437 16.6328Z" fill="white"/>
<line x1="36" y1="16.5" x2="26" y2="16.5" stroke="#EF662F"/>
<line x1="13" y1="49.5" x2="8" y2="49.5" stroke="#EF662F"/>
<path d="M15.32 52V46.12H16.184C16.512 46.12 16.7853 46.192 17.004 46.336C17.2253 46.48 17.3907 46.684 17.5 46.948C17.6093 47.212 17.664 47.5227 17.664 47.88C17.664 48.2373 17.6067 48.5453 17.492 48.804C17.3773 49.0627 17.2093 49.2653 16.988 49.412C16.7693 49.556 16.5013 49.6347 16.184 49.648V52H15.32ZM16.184 48.768C16.336 48.768 16.456 48.7387 16.544 48.68C16.632 48.6187 16.6947 48.5227 16.732 48.392C16.772 48.2613 16.792 48.0933 16.792 47.888C16.792 47.68 16.772 47.5107 16.732 47.38C16.6947 47.2493 16.6307 47.1533 16.54 47.092C16.452 47.0307 16.3333 47 16.184 47V48.768ZM22.5325 52V46.12H23.3965V52H22.5325ZM28.2403 52V51.072L29.5923 46.976H28.4323V46.12H30.5283V46.976L29.1523 51.144H30.5283V52H28.2403ZM35.1716 52V51.072L36.5236 46.976H35.3636V46.12H37.4596V46.976L36.0836 51.144H37.4596V52H35.1716ZM42.1228 52L43.0108 46.12H44.0668L44.9548 52H44.1148L43.9548 50.8H43.1228L42.9628 52H42.1228ZM43.2428 49.888H43.8348L43.5868 47.912L43.5628 47.6H43.5148L43.4908 47.912L43.2428 49.888Z" fill="white"/>
<line x1="53" y1="49.5" x2="48" y2="49.5" stroke="#EF662F"/>
<path d="M11.012 42.224C10.1533 42.224 9.42067 42.0327 8.814 41.65C8.21667 41.258 7.75933 40.726 7.442 40.054C7.134 39.382 6.98 38.6213 6.98 37.772V25.648C6.98 24.808 7.13867 24.052 7.456 23.38C7.78267 22.708 8.24933 22.176 8.856 21.784C9.46267 21.392 10.1813 21.196 11.012 21.196C11.6373 21.196 12.1973 21.3127 12.692 21.546C13.1867 21.7793 13.6067 22.1013 13.952 22.512C14.3067 22.9133 14.5773 23.3847 14.764 23.926C14.9507 24.458 15.044 25.032 15.044 25.648V28.476H12.216V25.648C12.216 25.2187 12.1273 24.8593 11.95 24.57C11.7727 24.2807 11.4787 24.136 11.068 24.136C10.6947 24.136 10.424 24.2853 10.256 24.584C10.088 24.8827 10.004 25.2373 10.004 25.648V37.772C10.004 38.1827 10.0927 38.5373 10.27 38.836C10.4567 39.1347 10.7227 39.284 11.068 39.284C11.488 39.284 11.782 39.1393 11.95 38.85C12.1273 38.5607 12.216 38.2013 12.216 37.772V34.944H15.044V37.772C15.044 38.612 14.8807 39.368 14.554 40.04C14.2273 40.712 13.7607 41.244 13.154 41.636C12.5567 42.028 11.8427 42.224 11.012 42.224ZM17.1552 42V21.42H20.1792C21.9898 21.42 23.3245 21.924 24.1832 22.932C25.0418 23.9307 25.4712 25.4053 25.4712 27.356C25.4712 28.5133 25.2658 29.5167 24.8552 30.366C24.4538 31.206 23.9638 31.822 23.3852 32.214L25.4432 42H22.4192L20.7112 33.32H20.1792V42H17.1552ZM20.1792 30.52C20.7392 30.52 21.1825 30.3987 21.5092 30.156C21.8358 29.904 22.0692 29.5493 22.2092 29.092C22.3492 28.6347 22.4192 28.0933 22.4192 27.468C22.4192 26.488 22.2558 25.7367 21.9292 25.214C21.6118 24.682 21.0285 24.416 20.1792 24.416V30.52ZM31.195 42.224C30.3456 42.224 29.6176 42.028 29.011 41.636C28.4136 41.244 27.9563 40.712 27.639 40.04C27.3216 39.368 27.163 38.612 27.163 37.772V21.42H30.187V37.772C30.187 38.1733 30.2663 38.528 30.425 38.836C30.5836 39.1347 30.8403 39.284 31.195 39.284C31.5683 39.284 31.8296 39.1347 31.979 38.836C32.1283 38.528 32.203 38.1733 32.203 37.772V21.42H35.227V37.772C35.227 38.612 35.0636 39.368 34.737 40.04C34.4196 40.712 33.9576 41.244 33.351 41.636C32.7536 42.028 32.035 42.224 31.195 42.224ZM41.1116 42.224C40.2809 42.224 39.5902 42.0887 39.0396 41.818C38.4889 41.538 38.0549 41.1367 37.7376 40.614C37.4202 40.0913 37.1916 39.4613 37.0516 38.724C36.9209 37.9867 36.8556 37.156 36.8556 36.232L39.8236 35.952C39.8236 36.4 39.8376 36.834 39.8656 37.254C39.9029 37.6647 39.9636 38.038 40.0476 38.374C40.1409 38.7007 40.2716 38.962 40.4396 39.158C40.6169 39.354 40.8409 39.452 41.1116 39.452C41.5596 39.452 41.8769 39.2467 42.0636 38.836C42.2502 38.416 42.3436 37.912 42.3436 37.324C42.3436 36.736 42.1896 36.1247 41.8816 35.49C41.5736 34.8553 41.2049 34.2533 40.7756 33.684C40.0476 32.7133 39.4082 31.8127 38.8576 30.982C38.3162 30.1513 37.8916 29.3347 37.5836 28.532C37.2849 27.7293 37.1356 26.8893 37.1356 26.012C37.1356 25.3213 37.2242 24.6867 37.4016 24.108C37.5789 23.52 37.8356 23.0113 38.1716 22.582C38.5169 22.1433 38.9322 21.8027 39.4176 21.56C39.9029 21.3173 40.4582 21.196 41.0836 21.196C41.8582 21.196 42.5116 21.3267 43.0436 21.588C43.5849 21.8493 44.0189 22.2227 44.3456 22.708C44.6816 23.1933 44.9242 23.772 45.0736 24.444C45.2322 25.1067 45.3116 25.844 45.3116 26.656L42.3436 26.936C42.3436 26.5907 42.3249 26.2453 42.2876 25.9C42.2596 25.5453 42.2036 25.2233 42.1196 24.934C42.0356 24.6447 41.9142 24.4113 41.7556 24.234C41.5969 24.0567 41.3916 23.968 41.1396 23.968C40.7476 23.968 40.4769 24.136 40.3276 24.472C40.1782 24.7987 40.1036 25.2653 40.1036 25.872C40.1036 26.656 40.3136 27.412 40.7336 28.14C41.1536 28.868 41.7182 29.7173 42.4276 30.688C43.2769 31.836 43.9676 32.8907 44.4996 33.852C45.0409 34.8133 45.3116 35.8773 45.3116 37.044C45.3116 37.7813 45.2322 38.4673 45.0736 39.102C44.9149 39.7273 44.6629 40.2733 44.3176 40.74C43.9816 41.2067 43.5476 41.5707 43.0156 41.832C42.4929 42.0933 41.8582 42.224 41.1116 42.224ZM48.9485 42V24.528H46.0925V21.42H54.8285V24.528H51.9725V42H48.9485Z" fill="white"/>
</svg>
